<svg fill="#EB5757" width="100pt" height="100pt" viewBox="0 0 100 100" xmlns="http://www.w3.org/2000/svg"><path d="M50 100C22.43 100 0 77.57 0 50S22.43 0 50 0s50 22.43 50 50-22.43 50-50 50zm0-94.117C25.668 5.883 5.883 25.668 5.883 50S25.668 94.117 50 94.117 94.117 74.332 94.117 50 74.332 5.883 50 5.883z"/><path d="M66.48 62.113a3.12 3.12 0 0 1-.008 4.418 3.126 3.126 0 0 1-4.418-.008L33.52 37.886a3.132 3.132 0 0 1 .004-4.426 3.131 3.131 0 0 1 4.422.016z"/><path d="M33.52 62.113a3.12 3.12 0 0 0 .008 4.418 3.126 3.126 0 0 0 4.418-.008l28.53-28.645a3.129 3.129 0 0 0-.007-4.426 3.129 3.129 0 0 0-4.414.024z"/></svg>