<?xml version="1.0" encoding="UTF-8"?><!DOCTYPE svg PUBLIC "-//W3C//DTD SVG 1.1//EN" "http://www.w3.org/Graphics/SVG/1.1/DTD/svg11.dtd"><svg xmlns="http://www.w3.org/2000/svg"><defs><style>.cls-1{fill:#010101}</style><style>.cls-1{fill:#010101}</style></defs><symbol id="icon-carousel-left" viewBox="0 0 16 16"><title>Icon_</title><path class="cls-1" d="M6 8l5.1-5.15a.5.5 0 0 0-.71-.71L4.9 7.65a.5.5 0 0 0 0 .71l5.5 5.5a.5.5 0 0 0 .71-.71z"/></symbol><symbol id="icon-carousel-right" viewBox="0 0 16 16"><title>Icon_</title><path class="cls-1" d="M4.9 13.15a.5.5 0 1 0 .71.71l5.5-5.5a.5.5 0 0 0 0-.71L5.6 2.15a.5.5 0 1 0-.71.71L10 8z"/></symbol><symbol id="icon-cross" viewBox="0 0 32 32"><path d="M26.96 1.504L16 12.464 5.04 1.504 1.504 5.04 12.464 16 1.504 26.96l3.536 3.536L16 19.536l10.96 10.96 3.536-3.536L19.536 16l10.96-10.96-3.536-3.536z" fill-rule="nonzero"/></symbol></svg>