<svg width="80" height="80" fill="none" xmlns="http://www.w3.org/2000/svg"><path fill-rule="evenodd" clip-rule="evenodd" d="M61.875 14.956h-1.25a3.748 3.748 0 0 1-3.75-3.735V8.734A3.746 3.746 0 0 1 60.625 5h1.25a3.746 3.746 0 0 1 3.75 3.734v2.487a3.748 3.748 0 0 1-3.75 3.735zm-1.25-7.469c-.688 0-1.25.556-1.25 1.247v2.488c0 .69.562 1.246 1.25 1.243h1.25a1.244 1.244 0 0 0 1.25-1.243V8.734a1.25 1.25 0 0 0-1.25-1.247h-1.25zM13.125 5a3.746 3.746 0 0 1 3.75 3.734v2.488a3.746 3.746 0 0 1-3.75 3.734h-1.25a3.746 3.746 0 0 1-3.75-3.734V8.734A3.746 3.746 0 0 1 11.875 5h1.25zm0 7.466a1.244 1.244 0 0 0 1.25-1.244V8.734c0-.331-.134-.65-.368-.881a1.244 1.244 0 0 0-.882-.366h-1.25a1.25 1.25 0 0 0-1.25 1.247v2.488c0 .69.563 1.247 1.25 1.244h1.25zm52.5 60.046a1.246 1.246 0 0 1 1.25 1.244A1.25 1.25 0 0 1 65.625 75h-51.25a1.244 1.244 0 1 1 0-2.488h51.25zM21.875 6.865a1.25 1.25 0 1 0-2.5 0v6.222a1.25 1.25 0 1 0 2.5 0V6.865zM29.375 5a3.746 3.746 0 0 1 3.75 3.734v2.488a3.746 3.746 0 0 1-3.75 3.734h-1.25a3.746 3.746 0 0 1-3.75-3.734V8.734A3.746 3.746 0 0 1 28.125 5h1.25zm0 7.466a1.244 1.244 0 0 0 1.25-1.244V8.734c0-.331-.135-.65-.369-.881a1.244 1.244 0 0 0-.881-.366h-1.25a1.25 1.25 0 0 0-1.25 1.247v2.488c0 .69.562 1.247 1.25 1.244h1.25zm8.75-5.6a1.25 1.25 0 1 0-2.5 0v6.221a1.25 1.25 0 1 0 2.5 0V6.865zM45.625 5a3.746 3.746 0 0 1 3.75 3.734v2.488a3.746 3.746 0 0 1-3.75 3.734h-1.25a3.746 3.746 0 0 1-3.75-3.734V8.734A3.746 3.746 0 0 1 44.375 5h1.25zm0 7.466a1.244 1.244 0 0 0 1.25-1.244V8.734a1.25 1.25 0 0 0-1.25-1.247h-1.25a1.25 1.25 0 0 0-1.25 1.247v2.488c0 .69.563 1.247 1.25 1.244h1.25zm7.5 1.868c.687 0 1.247-.556 1.25-1.247V6.866a1.25 1.25 0 1 0-2.5 0v6.221a1.25 1.25 0 0 0 1.25 1.247zm16.25 0a1.25 1.25 0 0 0 1.25-1.247V6.866a1.25 1.25 0 1 0-2.5 0v6.221a1.251 1.251 0 0 0 1.25 1.247zm-56.25 3.11a3.746 3.746 0 0 1 3.75 3.734v2.488a3.746 3.746 0 0 1-3.75 3.734h-1.25a3.746 3.746 0 0 1-3.75-3.734v-2.488a3.746 3.746 0 0 1 3.75-3.734h1.25zm.882 7.103c.234-.231.368-.55.368-.881v-2.488c0-.69-.562-1.247-1.25-1.244h-1.25a1.244 1.244 0 0 0-1.25 1.244v2.488c0 .69.563 1.247 1.25 1.247h1.25c.332 0 .647-.132.882-.366zm7.868-5.234a1.25 1.25 0 1 0-2.5 0v6.222a1.25 1.25 0 1 0 2.5 0v-6.222zm7.5-1.87a3.746 3.746 0 0 1 3.75 3.735v2.488a3.746 3.746 0 0 1-3.75 3.734h-1.25a3.746 3.746 0 0 1-3.75-3.734v-2.488a3.746 3.746 0 0 1 3.75-3.734h1.25zm.881 7.104c.234-.231.369-.55.369-.881v-2.488c0-.69-.563-1.247-1.25-1.244h-1.25a1.244 1.244 0 0 0-1.25 1.244v2.488c0 .69.562 1.247 1.25 1.247h1.25c.331 0 .647-.132.881-.366zm7.869-5.234a1.25 1.25 0 1 0-2.5 0v6.222a1.25 1.25 0 1 0 2.5 0v-6.222zm7.5-1.87a3.746 3.746 0 0 1 3.75 3.735v2.488a3.746 3.746 0 0 1-3.75 3.734h-1.25a3.746 3.746 0 0 1-3.75-3.734v-2.488a3.746 3.746 0 0 1 3.75-3.734h1.25zm0 7.47a1.25 1.25 0 0 0 1.25-1.247v-2.488c0-.69-.562-1.247-1.25-1.244h-1.25a1.244 1.244 0 0 0-1.25 1.244v2.488c0 .69.563 1.247 1.25 1.247h1.25zm6.25.621a1.25 1.25 0 1 0 2.5 0v-6.222a1.25 1.25 0 1 0-2.5 0v6.222zm8.75 1.866a3.746 3.746 0 0 1-3.75-3.735v-2.487a3.746 3.746 0 0 1 3.75-3.735h1.25a3.746 3.746 0 0 1 3.75 3.735v2.487a3.746 3.746 0 0 1-3.75 3.735h-1.25zm0-7.466a1.244 1.244 0 0 0-1.25 1.244v2.487a1.25 1.25 0 0 0 1.25 1.247h1.25c.688 0 1.25-.556 1.25-1.247v-2.487c0-.69-.562-1.247-1.25-1.244h-1.25zm12.5 1.587v2.5a4.983 4.983 0 0 1 4.375 4.935v33.6a4.99 4.99 0 0 1-5 4.978h-65a4.99 4.99 0 0 1-5-4.978v-33.6a4.977 4.977 0 0 1 3.162-4.628 5.844 5.844 0 0 1-.037-.663v-1.931A7.48 7.48 0 0 0 0 28.956v33.6a7.489 7.489 0 0 0 7.5 7.465h65a7.489 7.489 0 0 0 7.5-7.465v-33.6a7.483 7.483 0 0 0-6.875-7.435zm-3.75 5.263c-.69 0-1.25-.56-1.25-1.25v-6.222a1.25 1.25 0 1 1 2.5 0v6.222c0 .69-.56 1.25-1.25 1.25zm-52.5 6.837a3.748 3.748 0 0 0-3.75-3.734h-1.25a3.748 3.748 0 0 0-3.75 3.734v2.491a3.743 3.743 0 0 0 3.75 3.731h1.25a3.743 3.743 0 0 0 3.75-3.73V33.62zm-2.5 2.488v.003c0 .688-.562 1.244-1.25 1.244h-1.25c-.687 0-1.25-.556-1.25-1.244v-2.49c0-.688.563-1.247 1.25-1.244h1.25a1.246 1.246 0 0 1 1.25 1.243v2.488zm6.25-5.603c.69 0 1.25.56 1.25 1.25v6.222a1.25 1.25 0 1 1-2.5 0v-6.222c0-.69.56-1.25 1.25-1.25zm12.5 3.115a3.748 3.748 0 0 0-3.75-3.734h-1.25a3.748 3.748 0 0 0-3.75 3.734v2.491a3.743 3.743 0 0 0 3.75 3.731h1.25a3.743 3.743 0 0 0 3.75-3.73V33.62zm-2.5 2.488v.003c0 .688-.563 1.244-1.25 1.244h-1.25c-.688 0-1.25-.556-1.25-1.244v-2.49c0-.688.562-1.247 1.25-1.244h1.25a1.246 1.246 0 0 1 1.25 1.243v2.488zm6.25-5.603c.69 0 1.25.56 1.25 1.25v6.222a1.25 1.25 0 1 1-2.5 0v-6.222c0-.69.56-1.25 1.25-1.25zm12.5 3.115a3.748 3.748 0 0 0-3.75-3.734h-1.25a3.748 3.748 0 0 0-3.75 3.734v2.491a3.743 3.743 0 0 0 3.75 3.731h1.25a3.743 3.743 0 0 0 3.75-3.73V33.62zm-2.5 2.488v.003c0 .688-.562 1.244-1.25 1.244h-1.25c-.687 0-1.25-.556-1.25-1.244v-2.49c0-.688.563-1.247 1.25-1.244h1.25a1.246 1.246 0 0 1 1.25 1.243v2.488zm6.25 3.12c-.69 0-1.25-.56-1.25-1.25v-6.223a1.25 1.25 0 1 1 2.5 0v6.222c0 .69-.56 1.25-1.25 1.25zm3.75-3.116a3.743 3.743 0 0 0 3.75 3.73h1.25a3.743 3.743 0 0 0 3.75-3.73v-2.491a3.748 3.748 0 0 0-3.75-3.734h-1.25a3.748 3.748 0 0 0-3.75 3.734v2.49zm2.5-2.488v-.003c0-.688.563-1.247 1.25-1.244h1.25a1.246 1.246 0 0 1 1.25 1.244v2.49c0 .688-.562 1.244-1.25 1.244h-1.25c-.687 0-1.25-.556-1.25-1.243v-2.488zm10 5.603c-.69 0-1.25-.56-1.25-1.25v-6.222a1.25 1.25 0 1 1 2.5 0v6.222c0 .69-.56 1.25-1.25 1.25zm-52.5 6.837a3.743 3.743 0 0 0-3.75-3.73h-1.25a3.743 3.743 0 0 0-3.75 3.73v2.491a3.743 3.743 0 0 0 3.75 3.731h1.25a3.743 3.743 0 0 0 3.75-3.73v-2.492zm-2.5 2.491c0 .688-.562 1.244-1.25 1.244h-1.25c-.687 0-1.25-.556-1.25-1.244v-2.49c0-.688.563-1.244 1.25-1.244h1.25a1.247 1.247 0 0 1 1.25 1.244v2.49zm6.25-5.606c.69 0 1.25.56 1.25 1.25v6.222a1.25 1.25 0 1 1-2.5 0V44.2c0-.69.56-1.25 1.25-1.25zm12.5 3.115a3.743 3.743 0 0 0-3.75-3.73h-1.25a3.743 3.743 0 0 0-3.75 3.73v2.491a3.743 3.743 0 0 0 3.75 3.731h1.25a3.743 3.743 0 0 0 3.75-3.73v-2.492zm-2.5 2.491c0 .688-.563 1.244-1.25 1.244h-1.25c-.688 0-1.25-.556-1.25-1.244v-2.49c0-.688.562-1.244 1.25-1.244h1.25a1.247 1.247 0 0 1 1.25 1.244v2.49zm6.25-5.606c.69 0 1.25.56 1.25 1.25v6.222a1.25 1.25 0 1 1-2.5 0V44.2c0-.69.56-1.25 1.25-1.25zm12.5 3.115a3.743 3.743 0 0 0-3.75-3.73h-1.25a3.743 3.743 0 0 0-3.75 3.73v2.491a3.743 3.743 0 0 0 3.75 3.731h1.25a3.743 3.743 0 0 0 3.75-3.73v-2.492zm-2.5 2.491c0 .688-.562 1.244-1.25 1.244h-1.25c-.687 0-1.25-.556-1.25-1.244v-2.49c0-.688.563-1.244 1.25-1.244h1.25c.688 0 1.25.556 1.25 1.243v2.491zm6.25 3.115a1.25 1.25 0 0 1-1.25-1.25V44.2a1.25 1.25 0 1 1 2.5 0v6.221c0 .691-.56 1.25-1.25 1.25zm3.75-3.115a3.743 3.743 0 0 0 3.75 3.731h1.25a3.743 3.743 0 0 0 3.75-3.731v-2.49a3.743 3.743 0 0 0-3.75-3.732h-1.25a3.743 3.743 0 0 0-3.75 3.731v2.49zm2.5-2.488v-.003c0-.687.563-1.243 1.25-1.243h1.25c.688 0 1.25.556 1.25 1.243v2.49c0 .688-.562 1.245-1.25 1.245h-1.25a1.25 1.25 0 0 1-1.25-1.244v-2.488zm10 5.603a1.25 1.25 0 0 1-1.25-1.25V44.2a1.25 1.25 0 1 1 2.5 0v6.221c0 .691-.56 1.25-1.25 1.25zm-56.25 3.107h-1.25a3.746 3.746 0 0 0-3.75 3.735V61a3.748 3.748 0 0 0 3.75 3.735h1.25A3.748 3.748 0 0 0 16.875 61v-2.487a3.746 3.746 0 0 0-3.75-3.735zM14.375 61a1.247 1.247 0 0 1-1.25 1.244h-1.25A1.246 1.246 0 0 1 10.625 61v-2.487c0-.691.562-1.247 1.25-1.247h1.25c.687 0 1.25.556 1.25 1.247V61zm5-4.356a1.25 1.25 0 0 1 2.5 0v6.221a1.25 1.25 0 1 1-2.5 0v-6.221zm10-1.866h-1.25a3.746 3.746 0 0 0-3.75 3.735V61a3.748 3.748 0 0 0 3.75 3.735h1.25A3.748 3.748 0 0 0 33.125 61v-2.487a3.746 3.746 0 0 0-3.75-3.735zM30.625 61a1.247 1.247 0 0 1-1.25 1.244h-1.25A1.246 1.246 0 0 1 26.875 61v-2.487a1.25 1.25 0 0 1 1.25-1.247h1.25c.688 0 1.25.556 1.25 1.247V61zm5-4.356a1.25 1.25 0 0 1 2.5 0v6.221a1.25 1.25 0 1 1-2.5 0v-6.221zm10-1.866h-1.25a3.746 3.746 0 0 0-3.75 3.735V61a3.748 3.748 0 0 0 3.75 3.735h1.25A3.748 3.748 0 0 0 49.375 61v-2.487a3.746 3.746 0 0 0-3.75-3.735zM46.875 61c0 .688-.563 1.247-1.25 1.244h-1.25A1.246 1.246 0 0 1 43.125 61v-2.487c0-.691.562-1.247 1.25-1.247h1.25c.687 0 1.25.556 1.25 1.247V61zm6.25 3.115a1.25 1.25 0 0 1-1.25-1.25v-6.221a1.25 1.25 0 1 1 2.5 0v6.221c0 .691-.56 1.25-1.25 1.25zM56.875 61a3.748 3.748 0 0 0 3.75 3.734h1.25A3.748 3.748 0 0 0 65.625 61v-2.488a3.746 3.746 0 0 0-3.75-3.734h-1.25a3.746 3.746 0 0 0-3.75 3.734V61zm2.5-2.488c0-.69.563-1.246 1.25-1.246h1.25c.688 0 1.25.556 1.25 1.246V61c0 .687-.562 1.247-1.25 1.244h-1.25A1.246 1.246 0 0 1 59.375 61v-2.488zm10 5.603a1.25 1.25 0 0 1-1.25-1.25v-6.221a1.25 1.25 0 1 1 2.5 0v6.221c0 .691-.56 1.25-1.25 1.25z" fill="url(#paint0_linear)"/><defs><linearGradient id="paint0_linear" y1="5" x2="69.381" y2="84.292" gradientUnits="userSpaceOnUse"><stop stop-color="#34A23E"/><stop offset="1" stop-color="#2763AB"/></linearGradient></defs></svg>