<svg width="9" height="24" fill="none" xmlns="http://www.w3.org/2000/svg"><path d="M3.088 3.761L1.69 5.142a.998.998 0 0 1-1.4 0 .971.971 0 0 1 0-1.385L3.8.287a.998.998 0 0 1 1.4 0l3.51 3.47a.971.971 0 0 1 0 1.385.998.998 0 0 1-1.4 0l-1.396-1.38a.25.25 0 0 0-.423.173v16.128a.25.25 0 1 0 .424.174l1.394-1.381a1.002 1.002 0 0 1 1.4 0v.002a.971.971 0 0 1 0 1.385L5.2 23.713a.998.998 0 0 1-1.4 0l-3.51-3.47a.971.971 0 0 1 0-1.385v-.002a1.002 1.002 0 0 1 1.4 0l1.396 1.38a.25.25 0 0 0 .423-.173V3.935a.246.246 0 0 0-.247-.245.246.246 0 0 0-.174.071z" fill="#999"/></svg>