<svg width="14" height="14" fill="none" xmlns="http://www.w3.org/2000/svg"><path d="M13.814 4.05c-.218-.505-.82-.89-1.34-.853-.519.037-1.12-.166-1.385-.42-.266-.253-.482-.852-.462-1.375.02-.522-.382-1.107-.896-1.312-.514-.204-1.208-.049-1.55.342-.34.39-.913.678-1.277.689-.364.01-.943-.262-1.296-.643-.353-.38-1.054-.517-1.56-.298-.504.218-.891.82-.854 1.34.036.52-.167 1.12-.42 1.386-.253.266-.853.479-1.372.462-.52-.017-1.107.384-1.312.898-.204.513-.049 1.208.341 1.55.391.34.678.914.69 1.276.01.363-.26.944-.643 1.297-.382.353-.52 1.053-.298 1.56.22.509.82.893 1.34.856.519-.036 1.12.167 1.385.42.266.254.482.85.462 1.373-.02.522.382 1.107.897 1.312.515.204 1.208.049 1.55-.342.341-.39.912-.678 1.276-.683.364-.006.943.264 1.3.645.355.38 1.055.511 1.56.293.505-.219.891-.818.855-1.338-.037-.52.167-1.12.42-1.385.253-.266.85-.479 1.373-.458.522.02 1.107-.383 1.311-.898.205-.515.052-1.208-.341-1.553-.394-.344-.68-.91-.69-1.278-.01-.368.261-.943.645-1.297.39-.422.503-1.032.291-1.566zM8.076 9.502a2.72 2.72 0 0 1-3.582-1.421 2.724 2.724 0 1 1 3.586 1.42l-.004.002z" fill="#343434"/></svg>