<svg width="124" height="18" fill="none" xmlns="http://www.w3.org/2000/svg"><g clip-path="url(#clip0)" fill="#787878"><path d="M67.606 3.878c1.199 0 2.23.426 3.109 1.304.878.866 1.324 1.944 1.324 3.248 0 1.345-.446 2.45-1.338 3.341-.878.879-1.952 1.318-3.206 1.318-1.27 0-2.343-.426-3.207-1.291-.864-.865-1.296-1.983-1.296-3.341 0-1.411.501-2.543 1.505-3.434.865-.76 1.896-1.145 3.109-1.145zm-.14.466c-.822 0-1.477.293-1.98.878-.626.732-.933 1.797-.933 3.208 0 1.438.32 2.543.962 3.315.502.585 1.157.878 1.966.878.864 0 1.575-.32 2.147-.958.571-.652.85-1.664.85-3.062 0-1.504-.32-2.635-.934-3.367-.502-.586-1.185-.892-2.077-.892zm5.1 3.169l1.924-.732h.25v1.384c.321-.52.656-.892.977-1.105.32-.213.669-.306 1.017-.306.628 0 1.157.226 1.576.692.502.572.766 1.318.766 2.236 0 1.025-.306 1.877-.934 2.556-.501.546-1.143.825-1.91.825-.334 0-.627-.053-.878-.146-.181-.053-.376-.187-.613-.386v1.81c0 .413.028.666.083.785.056.107.14.2.265.253.14.067.377.107.711.107v.24h-3.262v-.24h.167c.251 0 .46-.04.642-.133a.493.493 0 0 0 .195-.24c.056-.106.07-.373.07-.812V8.684c0-.386-.014-.639-.056-.745a.398.398 0 0 0-.168-.227.599.599 0 0 0-.32-.08c-.112 0-.251.027-.418.094l-.084-.213zm2.175 1.038v2.223c0 .479.028.798.07.945.055.253.209.479.46.665.25.187.557.28.934.28.46 0 .822-.16 1.101-.506.376-.44.558-1.065.558-1.863 0-.906-.21-1.611-.628-2.104-.293-.332-.641-.505-1.031-.505-.224 0-.433.053-.656.16-.153.08-.432.319-.808.705zm8.778 3.474c-.642.466-1.046.745-1.213.812-.237.107-.502.16-.781.16-.432 0-.78-.133-1.06-.413-.279-.293-.418-.652-.418-1.118 0-.293.07-.546.195-.759.195-.293.516-.572.976-.825.46-.266 1.227-.572 2.3-.945v-.24c0-.599-.097-.998-.306-1.224-.195-.213-.474-.333-.85-.333-.293 0-.516.08-.684.226-.181.147-.265.32-.265.506l.014.373c0 .2-.056.36-.153.466a.582.582 0 0 1-.418.16.582.582 0 0 1-.418-.16.7.7 0 0 1-.154-.466c0-.373.195-.72.6-1.025.39-.32.962-.466 1.672-.466.558 0 1.018.08 1.367.266a1.2 1.2 0 0 1 .585.626c.084.186.126.572.126 1.144v2.024c0 .559.014.905.042 1.038.013.133.055.213.111.253.042.053.112.066.181.066a.4.4 0 0 0 .182-.04c.097-.053.278-.213.557-.479v.373c-.516.639-.99.972-1.464.972a.692.692 0 0 1-.53-.227c-.125-.146-.194-.399-.194-.745zm0-.426V9.323c-.684.266-1.13.452-1.339.559-.348.186-.613.386-.767.599-.153.2-.223.44-.223.679 0 .32.098.572.293.772.195.213.418.32.67.32.348 0 .794-.227 1.365-.653zm4.802-7.953v7.893c0 .373.028.612.084.745.056.12.14.213.265.266.111.067.334.094.655.094v.24h-3.053v-.24c.293 0 .488-.027.585-.08.112-.053.182-.147.251-.28.056-.133.084-.373.084-.745V6.135c0-.68-.014-1.092-.042-1.238-.042-.16-.083-.266-.153-.32a.457.457 0 0 0-.279-.08c-.112 0-.265.027-.446.094l-.112-.227 1.855-.718h.306zm8.948 4.349l3.401 3.221c.558.546 1.032.905 1.436 1.092.391.2.781.306 1.171.332v.24H98.9v-.24c.25 0 .446-.04.557-.133.126-.08.182-.173.182-.28a.594.594 0 0 0-.07-.279c-.042-.08-.181-.24-.418-.452l-3.193-3.022v2.849c0 .439.028.732.084.878a.72.72 0 0 0 .293.28c.195.106.404.16.613.16h.32v.24h-3.93v-.24h.32c.376 0 .655-.107.836-.32.098-.133.154-.466.154-.998V5.626c0-.44-.028-.746-.084-.892-.042-.107-.14-.186-.279-.266a1.29 1.29 0 0 0-.627-.16h-.32v-.24h3.93v.24h-.32c-.21 0-.418.053-.613.146a.563.563 0 0 0-.293.32c-.056.133-.084.426-.084.852v2.702c.098-.08.404-.36.934-.825 1.353-1.185 2.161-1.97 2.44-2.37.125-.173.181-.32.181-.452a.3.3 0 0 0-.14-.253c-.097-.08-.25-.12-.473-.12h-.223v-.24h3.401v.24c-.209 0-.39.027-.557.08-.154.04-.363.133-.586.28-.237.132-.53.345-.878.652-.098.093-.558.532-1.38 1.33l-1.408 1.345zm7.374 1.181c0 .892.223 1.585.683 2.077.447.506.99.759 1.604.759a1.8 1.8 0 0 0 1.059-.32c.307-.213.558-.585.753-1.105l.223.133c-.097.6-.376 1.132-.836 1.624a2.3 2.3 0 0 1-1.729.733c-.739 0-1.38-.28-1.924-.839-.53-.56-.795-1.304-.795-2.25 0-1.011.279-1.81.823-2.382.544-.573 1.227-.852 2.063-.852.697 0 1.269.226 1.715.665.446.44.683 1.025.683 1.757h-4.322zm0-.372h2.886c-.014-.386-.07-.652-.139-.812a1.36 1.36 0 0 0-.502-.573 1.406 1.406 0 0 0-1.715.213c-.307.28-.474.666-.53 1.172zm7.29-5.158v7.893c0 .373.028.612.084.745.056.12.139.213.265.266.111.067.334.094.655.094v.24h-3.053v-.24c.293 0 .488-.027.586-.08.111-.053.181-.147.25-.28.056-.133.084-.373.084-.745V6.135c0-.68-.014-1.092-.042-1.238-.042-.16-.083-.266-.153-.32a.457.457 0 0 0-.279-.08 1.34 1.34 0 0 0-.446.094l-.112-.227 1.855-.718h.306zm3.877 0v7.893c0 .373.028.612.083.745.056.12.14.213.265.266.112.067.335.094.656.094v.24h-3.054v-.24c.293 0 .488-.027.586-.08.112-.053.181-.147.251-.28.056-.133.084-.373.084-.745V6.135c0-.68-.014-1.092-.042-1.238-.042-.16-.084-.266-.154-.32a.454.454 0 0 0-.278-.08c-.112 0-.265.027-.447.094l-.111-.227 1.854-.718h.307zm1.383 3.298h2.9v.24h-.14c-.209 0-.362.04-.46.12a.44.44 0 0 0-.153.32c0 .172.083.399.223.705l1.519 2.995 1.395-3.288c.083-.173.125-.346.125-.52 0-.08-.028-.146-.056-.172-.028-.054-.097-.094-.167-.12a1.418 1.418 0 0 0-.404-.04v-.24h2.021v.24a.957.957 0 0 0-.39.106 1.22 1.22 0 0 0-.293.293c-.042.053-.125.227-.237.493l-2.537 5.936c-.237.586-.572 1.012-.962 1.318-.391.293-.781.44-1.143.44-.265 0-.488-.08-.67-.227a.664.664 0 0 1-.25-.506c0-.186.055-.332.181-.439.125-.106.293-.16.516-.16.153 0 .348.04.613.133.181.067.293.107.335.107.139 0 .292-.067.446-.2.167-.133.334-.399.488-.785l.446-1.038-2.245-4.486a2.536 2.536 0 0 0-.32-.506 1.795 1.795 0 0 0-.279-.306c-.098-.067-.279-.12-.502-.173v-.24z"/></g><path d="M30 9.002c0-.394.334-.714.747-.714s.747.32.747.714c0 .394-.334.713-.747.713S30 9.395 30 9.002z" fill="url(#paint0_radial)"/><path d="M31.263 6.454c0-.552.468-.999 1.046-.999.577 0 1.046.447 1.046.999 0 .551-.469.998-1.046.998-.578 0-1.046-.447-1.046-.998z" fill="url(#paint1_radial)"/><path d="M33.013 3.63c0-.709.602-1.283 1.345-1.283.742 0 1.344.574 1.344 1.283 0 .71-.602 1.284-1.344 1.284-.743 0-1.345-.575-1.345-1.284z" fill="url(#paint2_radial)"/><path d="M36.093 1.569c0-.867.735-1.57 1.643-1.57s1.643.703 1.643 1.57c0 .866-.735 1.569-1.643 1.569-.907 0-1.643-.703-1.643-1.57z" fill="url(#paint3_radial)"/><path d="M39.77 3.61c0-.71.601-1.284 1.344-1.284.742 0 1.344.575 1.344 1.284 0 .709-.602 1.284-1.344 1.284-.743 0-1.345-.575-1.345-1.284z" fill="url(#paint4_radial)"/><path d="M42.117 6.454c0-.552.468-.999 1.045-.999.578 0 1.046.447 1.046.999 0 .551-.468.998-1.046.998-.577 0-1.045-.447-1.045-.998z" fill="url(#paint5_radial)"/><path d="M43.977 8.981c0-.394.334-.713.747-.713.412 0 .747.32.747.713 0 .394-.335.713-.747.713-.413 0-.747-.319-.747-.713z" fill="url(#paint6_radial)"/><path d="M59.413 8.97c0 .393-.334.712-.747.712s-.747-.319-.747-.713c0-.394.334-.713.747-.713s.747.32.747.713z" fill="url(#paint7_radial)"/><path d="M58.172 11.517c0 .552-.468.998-1.046.998-.577 0-1.045-.447-1.045-.998 0-.551.468-.998 1.045-.998.578 0 1.046.447 1.046.998z" fill="url(#paint8_radial)"/><path d="M56.422 14.362c0 .709-.602 1.284-1.345 1.284-.742 0-1.344-.575-1.344-1.284 0-.71.602-1.284 1.344-1.284.743 0 1.345.575 1.345 1.284z" fill="url(#paint9_radial)"/><path d="M53.342 16.402c0 .867-.735 1.57-1.643 1.57s-1.643-.703-1.643-1.57c0-.867.735-1.569 1.643-1.569s1.643.703 1.643 1.57z" fill="url(#paint10_radial)"/><path d="M49.666 14.362c0 .709-.602 1.284-1.345 1.284-.742 0-1.344-.575-1.344-1.284 0-.71.602-1.284 1.344-1.284.743 0 1.345.575 1.345 1.284z" fill="url(#paint11_radial)"/><path d="M47.318 11.539c0 .55-.468.998-1.045.998-.578 0-1.046-.447-1.046-.998 0-.552.468-.999 1.046-.999.577 0 1.045.447 1.045.999z" fill="url(#paint12_radial)"/><path d="M.178 5.434h2.42c1.136 0 1.959.17 2.466.51.508.34.762.876.762 1.61 0 .508-.142.928-.428 1.26-.28.329-.693.541-1.236.64v.058c1.3.222 1.951.906 1.951 2.05 0 .766-.26 1.364-.779 1.793-.516.43-1.238.645-2.168.645H.178V5.434zm.996 3.668h1.64c.704 0 1.21-.11 1.518-.329.309-.222.463-.595.463-1.119 0-.48-.172-.826-.516-1.037-.343-.215-.89-.322-1.64-.322H1.174v2.807zm0 .843v3.205H2.96c.691 0 1.21-.132 1.559-.398.351-.27.527-.69.527-1.26 0-.531-.18-.922-.54-1.172-.355-.25-.898-.375-1.628-.375H1.174zm5.619-2.367h1.043l1.406 3.662c.309.836.5 1.44.574 1.81h.047c.051-.198.157-.538.317-1.019.164-.484.695-1.969 1.593-4.453h1.043l-2.76 7.313c-.273.722-.593 1.234-.96 1.535-.364.305-.81.457-1.342.457-.297 0-.59-.033-.879-.1v-.78c.215.048.455.071.72.071.669 0 1.145-.375 1.43-1.125l.358-.914-2.59-6.457z" fill="#999"/><defs><radialGradient id="paint0_radial" cx="0" cy="0" r="1" gradientUnits="userSpaceOnUse" gradientTransform="matrix(.74695 0 0 .71318 30.747 9.002)"><stop stop-color="#33A23D"/><stop offset=".01" stop-color="#33A23D"/><stop offset=".78" stop-color="#A5D6A9"/><stop offset="1" stop-color="#fff"/></radialGradient><radialGradient id="paint1_radial" cx="0" cy="0" r="1" gradientUnits="userSpaceOnUse" gradientTransform="matrix(1.04575 0 0 .99847 32.309 6.454)"><stop stop-color="#33A23D"/><stop offset=".01" stop-color="#33A23D"/><stop offset=".78" stop-color="#A5D6A9"/><stop offset="1" stop-color="#fff"/></radialGradient><radialGradient id="paint2_radial" cx="0" cy="0" r="1" gradientUnits="userSpaceOnUse" gradientTransform="matrix(1.34456 0 0 1.28377 34.358 3.63)"><stop stop-color="#33A23D"/><stop offset=".01" stop-color="#33A23D"/><stop offset=".78" stop-color="#A5D6A9"/><stop offset="1" stop-color="#fff"/></radialGradient><radialGradient id="paint3_radial" cx="0" cy="0" r="1" gradientUnits="userSpaceOnUse" gradientTransform="matrix(1.64331 0 0 1.56901 37.736 1.569)"><stop stop-color="#33A23D"/><stop offset=".01" stop-color="#33A23D"/><stop offset=".78" stop-color="#A5D6A9"/><stop offset="1" stop-color="#fff"/></radialGradient><radialGradient id="paint4_radial" cx="0" cy="0" r="1" gradientUnits="userSpaceOnUse" gradientTransform="matrix(1.34456 0 0 1.28377 41.114 3.61)"><stop stop-color="#33A23D"/><stop offset=".01" stop-color="#33A23D"/><stop offset=".78" stop-color="#A5D6A9"/><stop offset="1" stop-color="#fff"/></radialGradient><radialGradient id="paint5_radial" cx="0" cy="0" r="1" gradientUnits="userSpaceOnUse" gradientTransform="matrix(1.04575 0 0 .99847 43.162 6.454)"><stop stop-color="#33A23D"/><stop offset=".01" stop-color="#33A23D"/><stop offset=".78" stop-color="#A5D6A9"/><stop offset="1" stop-color="#fff"/></radialGradient><radialGradient id="paint6_radial" cx="0" cy="0" r="1" gradientUnits="userSpaceOnUse" gradientTransform="matrix(.74696 0 0 .71318 44.724 8.981)"><stop stop-color="#2461AA"/><stop offset=".01" stop-color="#2461AA"/><stop offset=".84" stop-color="#BACDE4"/><stop offset="1" stop-color="#fff"/></radialGradient><radialGradient id="paint7_radial" cx="0" cy="0" r="1" gradientUnits="userSpaceOnUse" gradientTransform="matrix(.747 0 0 .71323 58.666 8.97)"><stop stop-color="#2461AA"/><stop offset=".01" stop-color="#2461AA"/><stop offset=".84" stop-color="#BACDE4"/><stop offset="1" stop-color="#fff"/></radialGradient><radialGradient id="paint8_radial" cx="0" cy="0" r="1" gradientUnits="userSpaceOnUse" gradientTransform="matrix(1.04576 0 0 .99847 57.126 11.517)"><stop stop-color="#2461AA"/><stop offset=".01" stop-color="#2461AA"/><stop offset=".84" stop-color="#BACDE4"/><stop offset="1" stop-color="#fff"/></radialGradient><radialGradient id="paint9_radial" cx="0" cy="0" r="1" gradientUnits="userSpaceOnUse" gradientTransform="matrix(1.3445 0 0 1.28371 55.077 14.362)"><stop stop-color="#2461AA"/><stop offset=".01" stop-color="#2461AA"/><stop offset=".84" stop-color="#BACDE4"/><stop offset="1" stop-color="#fff"/></radialGradient><radialGradient id="paint10_radial" cx="0" cy="0" r="1" gradientUnits="userSpaceOnUse" gradientTransform="matrix(1.64336 0 0 1.56906 51.699 16.402)"><stop stop-color="#2461AA"/><stop offset=".01" stop-color="#2461AA"/><stop offset=".84" stop-color="#BACDE4"/><stop offset="1" stop-color="#fff"/></radialGradient><radialGradient id="paint11_radial" cx="0" cy="0" r="1" gradientUnits="userSpaceOnUse" gradientTransform="matrix(1.34456 0 0 1.28377 48.321 14.362)"><stop stop-color="#2461AA"/><stop offset=".01" stop-color="#2461AA"/><stop offset=".84" stop-color="#BACDE4"/><stop offset="1" stop-color="#fff"/></radialGradient><radialGradient id="paint12_radial" cx="0" cy="0" r="1" gradientUnits="userSpaceOnUse" gradientTransform="matrix(1.0457 0 0 .99842 46.273 11.538)"><stop stop-color="#2461AA"/><stop offset=".01" stop-color="#2461AA"/><stop offset=".84" stop-color="#BACDE4"/><stop offset="1" stop-color="#fff"/></radialGradient><clipPath id="clip0"><path d="M62.992 3.646h61.004V15.77H62.992V3.646z" fill="#fff"/></clipPath></defs></svg>